<svg fill="none" stroke="currentColor" viewBox="0 0 24 24" xmlns="http://www.w3.org/2000/svg">
  <!-- Trash can with explosion effect -->
  <path stroke-linecap="round" stroke-linejoin="round" stroke-width="2" d="M19 7l-.867 12.142A2 2 0 0116.138 21H7.862a2 2 0 01-1.995-1.858L5 7m5 4v6m4-6v6m1-10V4a1 1 0 00-1-1h-4a1 1 0 00-1 1v3M4 7h16"></path>
  <!-- Explosion/sparkle lines -->
  <path stroke-linecap="round" stroke-linejoin="round" stroke-width="1.5" d="M2 2l2 2m16 0l-2 2M2 22l2-2m16 0l-2-2M12 1v2m0 18v2M1 12h2m18 0h2" opacity="0.7"></path>
  <!-- Comedic X eyes -->
  <path stroke-linecap="round" stroke-linejoin="round" stroke-width="2" d="M8 10l2 2m4-4l-2 2m-2 2l-2-2m4 4l2-2" opacity="0.5"></path>
</svg>

