<svg fill="none" stroke="currentColor" viewBox="0 0 24 24" xmlns="http://www.w3.org/2000/svg">
  <!-- Door/exit -->
  <path stroke-linecap="round" stroke-linejoin="round" stroke-width="2" d="M17 16l4-4m0 0l-4-4m4 4H7m6 4v1a3 3 0 01-3 3H6a3 3 0 01-3-3V7a3 3 0 013-3h4a3 3 0 013 3v1"></path>
  <!-- Playful running legs -->
  <path stroke-linecap="round" stroke-linejoin="round" stroke-width="1.5" d="M8 14l1-1m0 0l1-1m-1 1l-1-1m1 1l1 1m-2-2l1-1m0 0l1-1m-1 1l-1-1m1 1l1 1" opacity="0.5"></path>
  <!-- Speed lines -->
  <path stroke-linecap="round" stroke-linejoin="round" stroke-width="1" d="M2 12h2m18 0h-2" opacity="0.3"></path>
</svg>

